<svg width="506" height="69" viewBox="0 0 506 69" fill="none" xmlns="http://www.w3.org/2000/svg">
<g filter="url(#filter0_d_326_87)">
<path d="M23.4 53L21.9858 54.4142L23.3953 55.8237L24.8095 54.4189L23.4 53ZM4.2 33.8L2.78579 32.3858L1.37157 33.8L2.78579 35.2142L4.2 33.8ZM23.4 14.6L24.8095 13.1811L23.3953 11.7763L21.9858 13.1858L23.4 14.6ZM29.4 20.56L30.7909 21.9971L32.2566 20.5786L30.8095 19.1411L29.4 20.56ZM15.72 33.8L14.3291 32.3629L12.8442 33.8L14.3291 35.2371L15.72 33.8ZM29.4 47.04L30.8095 48.4589L32.2566 47.0214L30.7909 45.6029L29.4 47.04ZM24.8142 51.5858L5.61421 32.3858L2.78579 35.2142L21.9858 54.4142L24.8142 51.5858ZM5.61421 35.2142L24.8142 16.0142L21.9858 13.1858L2.78579 32.3858L5.61421 35.2142ZM21.9905 16.0189L27.9905 21.9789L30.8095 19.1411L24.8095 13.1811L21.9905 16.0189ZM28.0091 19.1229L14.3291 32.3629L17.1109 35.2371L30.7909 21.9971L28.0091 19.1229ZM14.3291 35.2371L28.0091 48.4771L30.7909 45.6029L17.1109 32.3629L14.3291 35.2371ZM27.9905 45.6211L21.9905 51.5811L24.8095 54.4189L30.8095 48.4589L27.9905 45.6211ZM57.1356 58L56.3355 59.833L56.3408 59.8353L57.1356 58ZM48.8156 51.72L47.2435 52.9563L47.2501 52.9648L47.2569 52.9731L48.8156 51.72ZM44.6956 41.96L44.3951 39.9827L42.41 40.2844L42.7195 42.2683L44.6956 41.96ZM54.6956 40.44L56.6359 39.9549L56.1945 38.1892L54.3951 38.4627L54.6956 40.44ZM59.9356 48.36L58.781 49.993L58.7887 49.9985L59.9356 48.36ZM74.9356 50.2L75.6013 52.086L75.6013 52.086L74.9356 50.2ZM79.3356 47.4L77.8746 46.0342L77.8666 46.0428L77.8587 46.0515L79.3356 47.4ZM80.6556 40.68L78.7889 41.398L78.7937 41.4104L78.7987 41.4228L80.6556 40.68ZM79.4556 38.84L78.0056 40.2175L78.0233 40.2361L78.0414 40.2542L79.4556 38.84ZM77.4556 37.4L76.4696 39.14L76.5036 39.1593L76.5383 39.1772L77.4556 37.4ZM74.6556 36.24L75.2303 34.3243L75.2227 34.3221L74.6556 36.24ZM59.7756 31.84L60.3428 29.9221L60.3356 29.92L59.7756 31.84ZM55.6156 30.36L54.8157 32.1931L54.8357 32.2018L54.8558 32.21L55.6156 30.36ZM51.4156 27.76L50.114 29.2785L50.1306 29.2927L50.1475 29.3065L51.4156 27.76ZM48.1756 23.52L46.3704 24.3809L46.3784 24.3978L46.3868 24.4144L48.1756 23.52ZM49.7356 7.8L48.1336 6.60269L48.1315 6.60546L49.7356 7.8ZM57.3356 2.12L56.6062 0.257734L56.6009 0.259828L57.3356 2.12ZM67.9756 0.279998L67.9619 2.27995L67.9621 2.27995L67.9756 0.279998ZM78.5356 2.32L77.744 4.15665L77.7507 4.15953L77.7574 4.16237L78.5356 2.32ZM86.2956 8.04L87.8348 6.76285L87.8348 6.76285L86.2956 8.04ZM90.6956 17.12L91.038 19.0905L93.139 18.7254L92.6401 16.6521L90.6956 17.12ZM80.3356 18.92L78.3785 19.332L78.7762 21.2209L80.678 20.8905L80.3356 18.92ZM77.8556 13.76L76.3192 15.0404L76.332 15.0558L76.3452 15.0709L77.8556 13.76ZM73.4156 10.48L72.6244 12.3169L72.6345 12.3212L73.4156 10.48ZM67.8556 9.28L67.9097 7.28073L67.8965 7.28037L67.8834 7.28019L67.8556 9.28ZM62.4956 10.16L63.1742 12.0414L63.1827 12.0383L63.1912 12.0351L62.4956 10.16ZM58.5356 12.72L57.0526 11.3782L57.0437 11.388L57.0349 11.3979L58.5356 12.72ZM58.3356 20.12L56.8792 21.4907L56.8894 21.5016L56.8998 21.5123L58.3356 20.12ZM61.4956 22.24L60.7125 24.0803L60.7359 24.0903L60.7595 24.0996L61.4956 22.24ZM65.3756 23.52L65.9132 21.5936L65.9009 21.5902L65.8885 21.5869L65.3756 23.52ZM75.6956 26.4L75.158 28.3264L75.1714 28.3301L75.1848 28.3337L75.6956 26.4ZM80.4556 27.92L79.7721 29.7996L79.7721 29.7996L80.4556 27.92ZM89.5356 35.12L87.7885 36.0934L87.7938 36.1029L87.7991 36.1123L89.5356 35.12ZM89.2556 50.12L87.5054 49.1522L87.5014 49.1594L89.2556 50.12ZM84.2556 55.72L85.4122 57.3516L85.4122 57.3516L84.2556 55.72ZM77.0156 59.08L76.4862 57.1513L76.4813 57.1527L77.0156 59.08ZM68.5356 58.2C64.5571 58.2 61.0331 57.5084 57.9304 56.1647L56.3408 59.8353C60.0115 61.4249 64.0874 62.2 68.5356 62.2V58.2ZM57.9357 56.167C54.8563 54.8228 52.3484 52.9224 50.3744 50.4669L47.2569 52.9731C49.6562 55.9576 52.6949 58.2438 56.3355 59.833L57.9357 56.167ZM50.3877 50.4837C48.4583 48.0302 47.2104 45.1038 46.6717 41.6517L42.7195 42.2683C43.3542 46.3362 44.8529 49.9164 47.2435 52.9563L50.3877 50.4837ZM44.9962 43.9373L54.9962 42.4173L54.3951 38.4627L44.3951 39.9827L44.9962 43.9373ZM52.7553 40.9251C53.7137 44.7586 55.7146 47.8249 58.781 49.993L61.0903 46.727C58.8767 45.1618 57.3842 42.9481 56.6359 39.9549L52.7553 40.9251ZM58.7887 49.9985C61.8139 52.1161 65.2868 53.16 69.1356 53.16V49.16C66.0511 49.16 63.3907 48.3372 61.0825 46.7215L58.7887 49.9985ZM69.1356 53.16C71.4003 53.16 73.56 52.8064 75.6013 52.086L74.27 48.314C72.6846 48.8736 70.9777 49.16 69.1356 49.16V53.16ZM75.6013 52.086C77.6759 51.3537 79.4378 50.2543 80.8126 48.7485L77.8587 46.0515C76.9935 46.9991 75.822 47.7662 74.27 48.314L75.6013 52.086ZM80.7967 48.7658C82.3132 47.1434 83.0556 45.1382 83.0556 42.88H79.0556C79.0556 44.1952 78.6513 45.2033 77.8746 46.0342L80.7967 48.7658ZM83.0556 42.88C83.0556 41.8546 82.8839 40.8656 82.5126 39.9372L78.7987 41.4228C78.9606 41.8277 79.0556 42.3054 79.0556 42.88H83.0556ZM82.5223 39.962C82.1536 39.0034 81.5979 38.1539 80.8698 37.4258L78.0414 40.2542C78.38 40.5928 78.6243 40.9699 78.7889 41.398L82.5223 39.962ZM80.9056 37.4625C80.2104 36.7307 79.3481 36.1261 78.3729 35.6228L76.5383 39.1772C77.2165 39.5273 77.6875 39.8827 78.0056 40.2175L80.9056 37.4625ZM78.4417 35.66C77.4877 35.1194 76.4113 34.6786 75.2303 34.3243L74.0809 38.1557C75.0333 38.4414 75.8236 38.774 76.4696 39.14L78.4417 35.66ZM75.2227 34.3221L60.3427 29.9221L59.2085 33.7579L74.0885 38.1579L75.2227 34.3221ZM60.3356 29.92C59.1358 29.57 57.8165 29.1018 56.3755 28.51L54.8558 32.21C56.4014 32.8448 57.8555 33.3633 59.2156 33.76L60.3356 29.92ZM56.4155 28.5269C55.1299 27.9659 53.8859 27.1992 52.6838 26.2135L50.1475 29.3065C51.612 30.5075 53.168 31.4741 54.8157 32.1931L56.4155 28.5269ZM52.7172 26.2415C51.6339 25.3129 50.7116 24.1198 49.9645 22.6256L46.3868 24.4144C47.3463 26.3335 48.584 27.9671 50.114 29.2785L52.7172 26.2415ZM49.9808 22.6591C49.3165 21.2661 48.9356 19.4464 48.9356 17.12H44.9356C44.9356 19.8603 45.3814 22.3072 46.3704 24.3809L49.9808 22.6591ZM48.9356 17.12C48.9356 13.7612 49.7754 11.0952 51.3397 8.99453L48.1315 6.60546C45.9625 9.51815 44.9356 13.0655 44.9356 17.12H48.9356ZM51.3376 8.9973C52.9914 6.78449 55.2137 5.1084 58.0703 3.98017L56.6009 0.259828C53.1109 1.63826 50.2665 3.74883 48.1336 6.6027L51.3376 8.9973ZM58.065 3.98225C60.9989 2.83313 64.2892 2.25479 67.9619 2.27995L67.9893 -1.71996C63.8754 -1.74813 60.0723 -1.0998 56.6062 0.257742L58.065 3.98225ZM67.9621 2.27995C71.6864 2.30511 74.9349 2.94586 77.744 4.15665L79.3273 0.48335C75.9496 -0.972535 72.1582 -1.69179 67.9891 -1.71996L67.9621 2.27995ZM77.7574 4.16237C80.5649 5.34832 82.8876 7.06492 84.7565 9.31714L87.8348 6.76285C85.5436 4.00175 82.693 1.90501 79.3139 0.477625L77.7574 4.16237ZM84.7565 9.31714C86.619 11.5617 87.9606 14.3024 88.7511 17.5879L92.6401 16.6521C91.7239 12.8442 90.1323 9.53166 87.8348 6.76285L84.7565 9.31714ZM90.3533 15.1495L79.9933 16.9495L80.678 20.8905L91.038 19.0905L90.3533 15.1495ZM82.2927 18.508C81.8036 16.1849 80.8387 14.1458 79.3661 12.4491L76.3452 15.0709C77.3259 16.2009 78.0143 17.6018 78.3785 19.332L82.2927 18.508ZM79.3921 12.4796C77.9843 10.7903 76.2435 9.50714 74.1967 8.63883L72.6345 12.3212C74.1078 12.9462 75.327 13.8497 76.3192 15.0404L79.3921 12.4796ZM74.2069 8.64317C72.2297 7.79147 70.125 7.3406 67.9097 7.28073L67.8016 11.2793C69.533 11.3261 71.1349 11.6752 72.6244 12.3168L74.2069 8.64317ZM67.8834 7.28019C65.7387 7.2504 63.7045 7.57836 61.8 8.28486L63.1912 12.0351C64.5934 11.515 66.1326 11.2563 67.8278 11.2798L67.8834 7.28019ZM61.8171 8.27862C59.9271 8.96024 58.3158 9.98191 57.0526 11.3782L60.0187 14.0618C60.7821 13.2181 61.8108 12.5331 63.1742 12.0414L61.8171 8.27862ZM57.0349 11.3979C55.7263 12.8834 55.0556 14.6602 55.0556 16.64H59.0556C59.0556 15.6332 59.3716 14.7966 60.0363 14.0421L57.0349 11.3979ZM55.0556 16.64C55.0556 18.4885 55.6289 20.1623 56.8792 21.4907L59.792 18.7493C59.3356 18.2644 59.0556 17.6181 59.0556 16.64H55.0556ZM56.8998 21.5123C57.9583 22.6038 59.2413 23.4542 60.7125 24.0803L62.2787 20.3997C61.2433 19.9591 60.4196 19.3961 59.7714 18.7277L56.8998 21.5123ZM60.7595 24.0996C62.1111 24.6346 63.4789 25.086 64.8628 25.4531L65.8885 21.5869C64.659 21.2607 63.4401 20.8587 62.2317 20.3804L60.7595 24.0996ZM64.838 25.4464L75.158 28.3264L76.2332 24.4736L65.9132 21.5936L64.838 25.4464ZM75.1848 28.3337C76.5263 28.688 78.054 29.1748 79.7721 29.7996L81.1391 26.0404C79.3373 25.3852 77.6916 24.8586 76.2064 24.4663L75.1848 28.3337ZM79.7721 29.7996C81.3556 30.3754 82.8923 31.1837 84.3833 32.2347L86.6879 28.9653C84.9256 27.723 83.0756 26.7446 81.1391 26.0404L79.7721 29.7996ZM84.3833 32.2347C85.7468 33.1958 86.8836 34.4693 87.7885 36.0934L91.2828 34.1466C90.1076 32.0374 88.5778 30.2975 86.6879 28.9653L84.3833 32.2347ZM87.7991 36.1123C88.6442 37.5912 89.1356 39.5941 89.1356 42.24H93.1356C93.1356 39.1259 92.5604 36.3822 91.2721 34.1277L87.7991 36.1123ZM89.1356 42.24C89.1356 44.9405 88.5713 47.2245 87.5054 49.1522L91.0059 51.0878C92.4466 48.4822 93.1356 45.5129 93.1356 42.24H89.1356ZM87.5014 49.1594C86.4222 51.1302 84.961 52.7685 83.099 54.0884L85.4122 57.3516C87.7636 55.6849 89.6358 53.5898 91.0098 51.0806L87.5014 49.1594ZM83.099 54.0884C81.1993 55.435 79.0022 56.4607 76.4862 57.1513L77.5451 61.0087C80.4691 60.206 83.0986 58.9917 85.4122 57.3516L83.099 54.0884ZM76.4813 57.1527C73.972 57.8484 71.3257 58.2 68.5356 58.2V62.2C71.6655 62.2 74.6726 61.805 77.5499 61.0073L76.4813 57.1527ZM105.154 57.28L106.187 55.5675L106.187 55.5675L105.154 57.28ZM97.6337 49.24L95.8533 50.151L95.8575 50.1592L95.8618 50.1675L97.6337 49.24ZM97.7137 25.48L95.9475 24.5417L95.9475 24.5417L97.7137 25.48ZM105.274 17.48L104.251 15.7613L104.251 15.7613L105.274 17.48ZM127.834 17.52L128.867 15.8075L128.867 15.8075L127.834 17.52ZM135.354 25.6L133.579 26.5218L133.582 26.5275L135.354 25.6ZM135.314 49.28L133.545 48.3474L133.542 48.3525L135.314 49.28ZM127.794 57.32L128.816 59.0388L128.827 59.0325L127.794 57.32ZM125.034 47.32L123.418 46.1417L123.418 46.1417L125.034 47.32ZM124.994 27.4L123.398 28.6054L123.404 28.6136L124.994 27.4ZM110.074 25.4L111.214 27.0434L111.219 27.0397L110.074 25.4ZM106.394 30.24L108.257 30.9661L108.26 30.958L106.394 30.24ZM108.034 47.44L106.438 48.6454L106.445 48.6549L106.452 48.6643L108.034 47.44ZM116.474 58.2C112.464 58.2 109.058 57.2999 106.187 55.5675L104.121 58.9925C107.702 61.1535 111.844 62.2 116.474 62.2V58.2ZM106.187 55.5675C103.281 53.8144 101.027 51.4091 99.4057 48.3125L95.8618 50.1675C97.8143 53.8975 100.573 56.8523 104.121 58.9925L106.187 55.5675ZM99.4142 48.329C97.8191 45.2112 96.9937 41.5851 96.9937 37.4H92.9937C92.9937 42.1216 93.9284 46.3888 95.8533 50.151L99.4142 48.329ZM96.9937 37.4C96.9937 33.1372 97.8447 29.4965 99.48 26.4183L95.9475 24.5417C93.9561 28.2901 92.9937 32.5961 92.9937 37.4H96.9937ZM99.48 26.4183C101.127 23.3183 103.394 20.9258 106.296 19.1987L104.251 15.7613C100.7 17.8742 97.9273 20.8151 95.9475 24.5417L99.48 26.4183ZM106.296 19.1987C109.175 17.4857 112.546 16.6 116.474 16.6V12.6C111.921 12.6 107.826 13.6343 104.251 15.7613L106.296 19.1987ZM116.474 16.6C120.513 16.6 123.931 17.5013 126.801 19.2325L128.867 15.8075C125.283 13.6454 121.128 12.6 116.474 12.6V16.6ZM126.801 19.2325C129.703 20.9833 131.957 23.3988 133.579 26.5218L137.129 24.6782C135.177 20.9212 132.418 17.9501 128.867 15.8075L126.801 19.2325ZM133.582 26.5275C135.197 29.6129 136.034 33.2191 136.034 37.4H140.034C140.034 32.6742 139.084 28.4137 137.126 24.6725L133.582 26.5275ZM136.034 37.4C136.034 41.6047 135.185 45.2359 133.545 48.3474L137.083 50.2126C139.069 46.4441 140.034 42.1553 140.034 37.4H136.034ZM133.542 48.3525C131.921 51.4491 129.667 53.8544 126.761 55.6075L128.827 59.0325C132.374 56.8923 135.133 53.9375 137.086 50.2075L133.542 48.3525ZM126.771 55.6013C123.898 57.3109 120.489 58.2 116.474 58.2V62.2C121.099 62.2 125.236 61.1691 128.816 59.0387L126.771 55.6013ZM116.474 53.16C120.8 53.16 124.325 51.6867 126.65 48.4983L123.418 46.1417C122.009 48.0733 119.827 49.16 116.474 49.16V53.16ZM126.65 48.4983C128.828 45.5112 129.834 41.7581 129.834 37.4H125.834C125.834 41.1486 124.973 44.0088 123.418 46.1417L126.65 48.4983ZM129.834 37.4C129.834 32.9236 128.821 29.1172 126.583 26.1864L123.404 28.6136C124.953 30.6428 125.834 33.5031 125.834 37.4H129.834ZM126.59 26.1946C124.239 23.0825 120.743 21.64 116.474 21.64V25.64C119.778 25.64 121.962 26.7042 123.398 28.6054L126.59 26.1946ZM116.474 21.64C113.585 21.64 111.023 22.2975 108.929 23.7603L111.219 27.0397C112.484 26.1559 114.189 25.64 116.474 25.64V21.64ZM108.934 23.7566C106.916 25.1562 105.455 27.1096 104.527 29.522L108.26 30.958C108.933 29.2104 109.925 27.9371 111.214 27.0434L108.934 23.7566ZM104.53 29.5139C103.622 31.8459 103.194 34.4879 103.194 37.4H107.194C107.194 34.8721 107.566 32.7407 108.257 30.9661L104.53 29.5139ZM103.194 37.4C103.194 41.8778 104.207 45.692 106.438 48.6454L109.63 46.2346C108.074 44.1746 107.194 41.2955 107.194 37.4H103.194ZM106.452 48.6643C108.822 51.7255 112.275 53.16 116.474 53.16V49.16C113.259 49.16 111.085 48.1145 109.615 46.2157L106.452 48.6643ZM148.167 49.04L146.32 49.8072L146.322 49.8123L148.167 49.04ZM148.167 25.72L150.012 26.4923L150.012 26.4923L148.167 25.72ZM154.487 17.6L155.646 19.2296L155.649 19.2275L154.487 17.6ZM175.447 17.6L174.334 19.2618L174.343 19.2675L174.351 19.2732L175.447 17.6ZM182.447 25.72L180.644 26.5864L180.647 26.5919L182.447 25.72ZM175.607 57.2L174.487 55.5428L174.487 55.5428L175.607 57.2ZM144.367 59H142.367V61H144.367V59ZM144.367 1.4V-0.600002H142.367V1.4H144.367ZM154.087 1.4H156.087V-0.600002H154.087V1.4ZM154.087 28.68V30.68H156.087V28.68H154.087ZM152.887 28.68V26.68H150.887V28.68H152.887ZM152.887 59V61H154.887V59H152.887ZM169.927 49.68L168.706 48.0957L168.706 48.0957L169.927 49.68ZM173.527 44.6L171.651 43.9054L171.647 43.9184L173.527 44.6ZM173.527 30.28L171.651 30.9746L171.654 30.9822L173.527 30.28ZM169.807 25.16L168.595 26.7509L168.603 26.757L168.611 26.763L169.807 25.16ZM157.407 25.04L158.616 26.6334L158.624 26.6268L158.633 26.6202L157.407 25.04ZM153.967 30L152.079 29.3393L152.077 29.3462L152.074 29.3532L153.967 30ZM153.967 44.8L152.072 45.4396L152.075 45.4501L152.079 45.4607L153.967 44.8ZM157.447 49.8L156.234 51.3902L156.249 51.4017L156.264 51.4128L157.447 49.8ZM165.207 58.2C161.317 58.2 158.207 57.2808 155.755 55.5623L153.459 58.8377C156.714 61.1192 160.67 62.2 165.207 62.2V58.2ZM155.755 55.5623C153.233 53.7945 151.317 51.3847 150.012 48.2677L146.322 49.8123C147.897 53.5753 150.274 56.6055 153.459 58.8377L155.755 55.5623ZM150.014 48.2728C148.688 45.0817 148.007 41.4676 148.007 37.4H144.007C144.007 41.9191 144.765 46.0649 146.32 49.8072L150.014 48.2728ZM148.007 37.4C148.007 33.2751 148.69 29.6506 150.012 26.4923L146.322 24.9477C144.764 28.6694 144.007 32.8315 144.007 37.4H148.007ZM150.012 26.4923C151.322 23.3623 153.206 20.9662 155.646 19.2296L153.327 15.9704C150.221 18.1805 147.892 21.1977 146.322 24.9477L150.012 26.4923ZM155.649 19.2275C158.049 17.5137 161.074 16.6 164.847 16.6V12.6C160.406 12.6 156.525 13.6863 153.324 15.9725L155.649 19.2275ZM164.847 16.6C168.586 16.6 171.72 17.5112 174.334 19.2618L176.56 15.9382C173.201 13.6888 169.268 12.6 164.847 12.6V16.6ZM174.351 19.2732C177.041 21.0349 179.139 23.4543 180.644 26.5864L184.249 24.8536C182.448 21.1057 179.879 18.1118 176.543 15.9268L174.351 19.2732ZM180.647 26.5919C182.15 29.6947 182.927 33.2824 182.927 37.4H186.927C186.927 32.7709 186.051 28.572 184.247 24.8481L180.647 26.5919ZM182.927 37.4C182.927 41.4644 182.163 45.0464 180.679 48.185L184.295 49.895C186.064 46.1536 186.927 41.9756 186.927 37.4H182.927ZM180.679 48.185C179.195 51.3227 177.13 53.7568 174.487 55.5428L176.727 58.8572C180.003 56.6432 182.525 53.6373 184.295 49.895L180.679 48.185ZM174.487 55.5428C171.894 57.2947 168.828 58.2 165.207 58.2V62.2C169.533 62.2 173.399 61.1053 176.727 58.8572L174.487 55.5428ZM146.367 59V1.4H142.367V59H146.367ZM144.367 3.4H154.087V-0.600002H144.367V3.4ZM152.087 1.4V28.68H156.087V1.4H152.087ZM154.087 26.68H152.887V30.68H154.087V26.68ZM150.887 28.68V59H154.887V28.68H150.887ZM152.887 57H144.367V61H152.887V57ZM163.727 53.56C166.575 53.56 169.099 52.8424 171.148 51.2643L168.706 48.0957C167.501 49.0242 165.892 49.56 163.727 49.56V53.56ZM171.148 51.2643C173.107 49.7549 174.518 47.7335 175.407 45.2816L171.647 43.9184C170.989 45.7331 170.001 47.0985 168.706 48.0957L171.148 51.2643ZM175.402 45.2946C176.296 42.8823 176.727 40.2429 176.727 37.4H172.727C172.727 39.8371 172.358 41.9977 171.651 43.9054L175.402 45.2946ZM176.727 37.4C176.727 34.5816 176.295 31.9661 175.4 29.5778L171.654 30.9822C172.359 32.8606 172.727 34.9917 172.727 37.4H176.727ZM175.402 29.5854C174.482 27.1005 173.023 25.0638 171.003 23.557L168.611 26.763C169.951 27.7629 170.972 29.1395 171.651 30.9746L175.402 29.5854ZM171.019 23.5691C168.918 21.9685 166.331 21.24 163.407 21.24V25.24C165.656 25.24 167.336 25.7915 168.595 26.7509L171.019 23.5691ZM163.407 21.24C160.624 21.24 158.159 21.925 156.181 23.4598L158.633 26.6202C159.748 25.755 161.283 25.24 163.407 25.24V21.24ZM156.198 23.4466C154.29 24.8944 152.934 26.8975 152.079 29.3393L155.855 30.6607C156.493 28.8358 157.431 27.5322 158.616 26.6334L156.198 23.4466ZM152.074 29.3532C151.267 31.7156 150.887 34.4098 150.887 37.4H154.887C154.887 34.7369 155.227 32.4978 155.859 30.6468L152.074 29.3532ZM150.887 37.4C150.887 40.3667 151.268 43.057 152.072 45.4396L155.862 44.1604C155.226 42.2763 154.887 40.0333 154.887 37.4H150.887ZM152.079 45.4607C152.936 47.9092 154.307 49.9206 156.234 51.3902L158.66 48.2098C157.44 47.2794 156.491 45.9575 155.855 44.1393L152.079 45.4607ZM156.264 51.4128C158.298 52.9045 160.844 53.56 163.727 53.56V49.56C161.437 49.56 159.795 49.0421 158.63 48.1872L156.264 51.4128ZM191.344 59H189.344V61H191.344V59ZM191.344 15.8V13.8H189.344V15.8H191.344ZM199.864 15.8H201.864V13.8H199.864V15.8ZM199.864 26.32L198.275 27.5349L201.864 32.2278V26.32H199.864ZM198.824 24.96L196.948 24.2654L196.565 25.2992L197.235 26.1749L198.824 24.96ZM200.944 21.04L199.348 19.8343L199.344 19.84L200.944 21.04ZM204.184 18.08L205.234 19.7821L205.269 19.7606L205.303 19.7377L204.184 18.08ZM207.704 16.4L208.3 18.309L208.312 18.3052L208.325 18.3012L207.704 16.4ZM211.704 15.64L211.821 17.6365L211.841 17.6354L211.86 17.6339L211.704 15.64ZM215.664 15.8H217.664V14.1057L215.993 13.8272L215.664 15.8ZM215.664 24.8L215.104 26.72L217.664 27.4667V24.8H215.664ZM211.224 24.44L211.066 22.4463L211.063 22.4465L211.224 24.44ZM206.744 25.84L207.694 27.5998L207.734 27.5783L207.773 27.555L206.744 25.84ZM203.464 28.6L201.873 27.3879L201.864 27.4L201.855 27.4123L203.464 28.6ZM201.624 32.44L203.548 32.9846L203.551 32.9753L201.624 32.44ZM201.024 59V61H203.024V59H201.024ZM193.344 59V15.8H189.344V59H193.344ZM191.344 17.8H199.864V13.8H191.344V17.8ZM197.864 15.8V26.32H201.864V15.8H197.864ZM201.452 25.1051L200.412 23.7451L197.235 26.1749L198.275 27.5349L201.452 25.1051ZM200.699 25.6546C201.169 24.387 201.785 23.2519 202.544 22.24L199.344 19.84C198.343 21.1747 197.545 22.653 196.948 24.2654L200.699 25.6546ZM202.539 22.2457C203.3 21.2392 204.196 20.4224 205.234 19.7821L203.134 16.3779C201.665 17.2843 200.401 18.4408 199.348 19.8343L202.539 22.2457ZM205.303 19.7377C206.202 19.1309 207.198 18.6535 208.3 18.309L207.107 14.491C205.65 14.9465 204.299 15.5891 203.065 16.4223L205.303 19.7377ZM208.325 18.3012C209.47 17.9273 210.634 17.7064 211.821 17.6365L211.586 13.6434C210.054 13.7336 208.551 14.0194 207.083 14.4988L208.325 18.3012ZM211.86 17.6339C213.066 17.5393 214.223 17.5875 215.335 17.7728L215.993 13.8272C214.544 13.5858 213.061 13.5274 211.547 13.6461L211.86 17.6339ZM213.664 15.8V24.8H217.664V15.8H213.664ZM216.224 22.88C214.658 22.4234 212.926 22.2986 211.066 22.4463L211.382 26.4337C212.881 26.3147 214.109 26.4299 215.104 26.72L216.224 22.88ZM211.063 22.4465C209.124 22.6029 207.33 23.1561 205.715 24.125L207.773 27.555C208.825 26.9239 210.017 26.5438 211.385 26.4335L211.063 22.4465ZM205.793 24.0802C204.229 24.9247 202.911 26.0251 201.873 27.3879L205.055 29.8121C205.723 28.9349 206.591 28.1952 207.694 27.5998L205.793 24.0802ZM201.855 27.4123C200.873 28.7426 200.157 30.2471 199.697 31.9047L203.551 32.9753C203.89 31.7529 204.401 30.6974 205.073 29.7877L201.855 27.4123ZM199.699 31.8954C199.243 33.5065 199.024 35.2252 199.024 37.04H203.024C203.024 35.5481 203.204 34.2002 203.548 32.9846L199.699 31.8954ZM199.024 37.04V59H203.024V37.04H199.024ZM201.024 57H191.344V61H201.024V57ZM228.236 57.36L229.229 55.6244L229.229 55.6244L228.236 57.36ZM220.476 49.48L218.721 50.4406L218.727 50.4513L220.476 49.48ZM220.436 25.6L222.208 26.527L222.211 26.5214L220.436 25.6ZM227.996 17.48L226.973 15.7613L226.973 15.7613L227.996 17.48ZM250.596 17.76L249.476 19.4175L249.485 19.423L249.493 19.4284L250.596 17.76ZM257.596 26.6L255.738 27.3405L255.738 27.3405L257.596 26.6ZM259.316 40.08V42.08H261.176L261.31 40.224L259.316 40.08ZM249.756 40.08H247.756V42.08H249.756V40.08ZM249.756 36.56L251.756 36.56L251.756 36.5486L249.756 36.56ZM247.276 26.28L248.873 25.0768L248.873 25.0768L247.276 26.28ZM230.796 26.72L232.364 27.961L232.371 27.9526L230.796 26.72ZM230.796 47.56L229.234 48.8094L229.234 48.8094L230.796 47.56ZM245.316 49.6L246.356 51.3079L246.364 51.3033L245.316 49.6ZM249.316 45L249.895 43.0857L248.236 42.5839L247.503 44.1542L249.316 45ZM258.836 47.88L260.677 48.6617L261.547 46.6109L259.415 45.9657L258.836 47.88ZM251.156 56.96L250.098 55.2625L250.092 55.2662L251.156 56.96ZM224.876 40.08H222.876V42.08H224.876V40.08ZM224.876 32.8V30.8H222.876V32.8H224.876ZM254.596 32.8H256.596V30.8H254.596V32.8ZM254.596 40.08V42.08H256.596V40.08H254.596ZM239.756 58.2C235.679 58.2 232.191 57.3202 229.229 55.6244L227.242 59.0956C230.893 61.1864 235.086 62.2 239.756 62.2V58.2ZM229.229 55.6244C226.242 53.9139 223.915 51.5529 222.224 48.5087L218.727 50.4513C220.769 54.1271 223.616 57.0194 227.242 59.0956L229.229 55.6244ZM222.23 48.5194C220.573 45.4934 219.716 41.9657 219.716 37.88H215.716C215.716 42.541 216.699 46.7466 218.721 50.4406L222.23 48.5194ZM219.716 37.88C219.716 33.4168 220.572 29.6543 222.208 26.527L218.663 24.673C216.673 28.4791 215.716 32.9032 215.716 37.88H219.716ZM222.211 26.5214C223.861 23.342 226.128 20.9188 229.018 19.1987L226.973 15.7613C223.41 17.8812 220.637 20.8713 218.661 24.6786L222.211 26.5214ZM229.018 19.1987C231.897 17.4857 235.268 16.6 239.196 16.6V12.6C234.643 12.6 230.547 13.6343 226.973 15.7613L229.018 19.1987ZM239.196 16.6C243.354 16.6 246.746 17.5737 249.476 19.4175L251.715 16.1025C248.206 13.733 243.997 12.6 239.196 12.6V16.6ZM249.493 19.4284C252.269 21.2634 254.355 23.8712 255.738 27.3405L259.453 25.8595C257.796 21.7022 255.216 18.4166 251.698 16.0916L249.493 19.4284ZM255.738 27.3405C257.12 30.8092 257.678 34.987 257.321 39.936L261.31 40.224C261.7 34.8264 261.111 30.0174 259.453 25.8595L255.738 27.3405ZM259.316 38.08H249.756V42.08H259.316V38.08ZM251.756 40.08V36.56H247.756V40.08H251.756ZM251.756 36.5486C251.728 31.7078 250.889 27.7529 248.873 25.0768L245.678 27.4832C246.916 29.1271 247.73 32.0255 247.756 36.5714L251.756 36.5486ZM248.873 25.0768C246.762 22.2738 243.516 21.04 239.596 21.04V25.04C242.662 25.04 244.536 25.9662 245.678 27.4832L248.873 25.0768ZM239.596 21.04C235.214 21.04 231.618 22.4238 229.221 25.4874L232.371 27.9526C233.813 26.1096 236.084 25.04 239.596 25.04V21.04ZM229.227 25.479C226.916 28.4005 225.916 32.4779 225.916 37.4H229.916C229.916 32.9354 230.836 29.8929 232.364 27.961L229.227 25.479ZM225.916 37.4C225.916 42.0397 226.932 45.9317 229.234 48.8094L232.357 46.3106C230.82 44.3883 229.916 41.507 229.916 37.4H225.916ZM229.234 48.8094C231.61 51.779 235.041 53.16 239.196 53.16V49.16C235.99 49.16 233.822 48.141 232.357 46.3106L229.234 48.8094ZM239.196 53.16C241.867 53.16 244.282 52.5721 246.356 51.3079L244.275 47.8921C242.936 48.7079 241.271 49.16 239.196 49.16V53.16ZM246.364 51.3033C248.458 50.0143 250.044 48.1689 251.128 45.8458L247.503 44.1542C246.721 45.8311 245.639 47.0524 244.267 47.8967L246.364 51.3033ZM248.737 46.9143L258.257 49.7943L259.415 45.9657L249.895 43.0857L248.737 46.9143ZM256.995 47.0983C255.496 50.6274 253.203 53.3281 250.098 55.2625L252.213 58.6575C256.042 56.2719 258.869 52.9192 260.677 48.6617L256.995 47.0983ZM250.092 55.2662C246.979 57.2211 243.549 58.2 239.756 58.2V62.2C244.282 62.2 248.452 61.0189 252.219 58.6538L250.092 55.2662ZM226.876 40.08V32.8H222.876V40.08H226.876ZM224.876 34.8H254.596V30.8H224.876V34.8ZM252.596 32.8V40.08H256.596V32.8H252.596ZM254.596 38.08H224.876V42.08H254.596V38.08ZM279.456 59H277.456V61H279.456V59ZM279.456 1.4V-0.600002H277.456V1.4H279.456ZM288.136 1.4L289.933 0.522526L289.385 -0.600002H288.136V1.4ZM308.056 42.2L306.259 43.0775L308.056 46.7585L309.853 43.0775L308.056 42.2ZM327.976 1.4V-0.600002H326.727L326.179 0.522526L327.976 1.4ZM336.656 1.4H338.656V-0.600002H336.656V1.4ZM336.656 59V61H338.656V59H336.656ZM327.656 59H325.656V61H327.656V59ZM327.656 22.08H329.656L325.852 21.2162L327.656 22.08ZM309.976 59V61H311.236L311.78 59.8638L309.976 59ZM306.136 59L304.332 59.8622L304.875 61H306.136V59ZM288.496 22.08L290.301 21.2178L286.496 22.08H288.496ZM288.496 59V61H290.496V59H288.496ZM281.456 59V1.4H277.456V59H281.456ZM279.456 3.4H288.136V-0.600002H279.456V3.4ZM286.339 2.27747L306.259 43.0775L309.853 41.3225L289.933 0.522526L286.339 2.27747ZM309.853 43.0775L329.773 2.27747L326.179 0.522526L306.259 41.3225L309.853 43.0775ZM327.976 3.4H336.656V-0.600002H327.976V3.4ZM334.656 1.4V59H338.656V1.4H334.656ZM336.656 57H327.656V61H336.656V57ZM329.656 59V22.08H325.656V59H329.656ZM325.852 21.2162L308.172 58.1362L311.78 59.8638L329.46 22.9438L325.852 21.2162ZM309.976 57H306.136V61H309.976V57ZM307.941 58.1378L290.301 21.2178L286.692 22.9422L304.332 59.8622L307.941 58.1378ZM286.496 22.08V59H290.496V22.08H286.496ZM288.496 57H279.456V61H288.496V57ZM346.294 9.24H344.294V11.24H346.294V9.24ZM346.294 0.399999V-1.6H344.294V0.399999H346.294ZM355.934 0.399999H357.934V-1.6H355.934V0.399999ZM355.934 9.24V11.24H357.934V9.24H355.934ZM346.294 59H344.294V61H346.294V59ZM346.294 15.8V13.8H344.294V15.8H346.294ZM355.934 15.8H357.934V13.8H355.934V15.8ZM355.934 59V61H357.934V59H355.934ZM348.294 9.24V0.399999H344.294V9.24H348.294ZM346.294 2.4H355.934V-1.6H346.294V2.4ZM353.934 0.399999V9.24H357.934V0.399999H353.934ZM355.934 7.24H346.294V11.24H355.934V7.24ZM348.294 59V15.8H344.294V59H348.294ZM346.294 17.8H355.934V13.8H346.294V17.8ZM353.934 15.8V59H357.934V15.8H353.934ZM355.934 57H346.294V61H355.934V57ZM417.396 59H415.396V61H417.396V59ZM415.196 25.84L413.689 27.1553L413.694 27.1613L413.699 27.1672L415.196 25.84ZM405.076 24.4L406.06 26.1411L406.074 26.1331L406.088 26.1248L405.076 24.4ZM402.156 27.52L403.923 28.4558L403.927 28.4487L403.931 28.4416L402.156 27.52ZM401.076 32.4L400.061 34.1235L403.076 35.8985V32.4H401.076ZM396.796 29.88L394.796 29.8979L394.806 31.0293L395.781 31.6035L396.796 29.88ZM398.796 22L397.084 20.9652L397.081 20.971L398.796 22ZM404.396 16.64L405.353 18.3958L405.353 18.3958L404.396 16.64ZM423.196 19.04L421.694 20.3609L421.7 20.3683L421.707 20.3756L423.196 19.04ZM427.036 59V61H429.036V59H427.036ZM365.436 59H363.436V61H365.436V59ZM365.436 15.8V13.8H363.436V15.8H365.436ZM373.956 15.8H375.956V13.8H373.956V15.8ZM373.956 29.2H371.956V31.2H373.956V29.2ZM375.156 29.2H377.156V27.2H375.156V29.2ZM375.156 59V61H377.156V59H375.156ZM391.476 59H389.476V61H391.476V59ZM389.276 25.84L390.782 24.5247L390.782 24.5247L389.276 25.84ZM377.356 25.84L375.861 24.5113L375.855 24.5179L375.849 24.5247L377.356 25.84ZM375.156 32.4L374.046 34.0641L377.156 36.137V32.4H375.156ZM370.836 29.52H368.836V30.5904L369.726 31.1841L370.836 29.52ZM372.916 21.96L371.215 20.9073L371.215 20.9073L372.916 21.96ZM378.516 16.68L379.473 18.4358L379.48 18.432L378.516 16.68ZM394.556 16.8L393.475 18.483L393.487 18.4908L393.499 18.4983L394.556 16.8ZM399.436 22.4L397.611 23.2199L397.617 23.2323L397.623 23.2446L399.436 22.4ZM401.076 59V61H403.076V59H401.076ZM419.396 59V32.76H415.396V59H419.396ZM419.396 32.76C419.396 29.479 418.58 26.6408 416.692 24.5128L413.699 27.1672C414.745 28.3458 415.396 30.121 415.396 32.76H419.396ZM416.702 24.5247C414.806 22.3528 412.24 21.32 409.236 21.32V25.32C411.245 25.32 412.652 25.9672 413.689 27.1553L416.702 24.5247ZM409.236 21.32C407.365 21.32 405.623 21.7594 404.063 22.6752L406.088 26.1248C406.981 25.6006 408.013 25.32 409.236 25.32V21.32ZM404.092 22.6589C402.491 23.5634 401.259 24.9065 400.381 26.5984L403.931 28.4416C404.492 27.3602 405.207 26.6233 406.06 26.1411L404.092 22.6589ZM400.388 26.5842C399.484 28.2916 399.076 30.2546 399.076 32.4H403.076C403.076 30.7588 403.387 29.4684 403.923 28.4558L400.388 26.5842ZM402.09 30.6765L397.81 28.1565L395.781 31.6035L400.061 34.1235L402.09 30.6765ZM398.796 29.8621C398.772 27.1949 399.364 24.94 400.511 23.029L397.081 20.971C395.507 23.5933 394.766 26.5917 394.796 29.8979L398.796 29.8621ZM400.507 23.0348C401.711 21.0434 403.318 19.5059 405.353 18.3958L403.438 14.8842C400.78 16.3341 398.653 18.3699 397.084 20.9652L400.507 23.0348ZM405.353 18.3958C407.384 17.2883 409.664 16.72 412.236 16.72V12.72C409.048 12.72 406.101 13.4317 403.438 14.8842L405.353 18.3958ZM412.236 16.72C416.586 16.72 419.63 18.0148 421.694 20.3609L424.697 17.7191C421.694 14.3052 417.432 12.72 412.236 12.72V16.72ZM421.707 20.3756C423.87 22.7862 425.036 26.034 425.036 30.32H429.036C429.036 25.2727 427.642 21.0005 424.684 17.7044L421.707 20.3756ZM425.036 30.32V59H429.036V30.32H425.036ZM427.036 57H417.396V61H427.036V57ZM367.436 59V15.8H363.436V59H367.436ZM365.436 17.8H373.956V13.8H365.436V17.8ZM371.956 15.8V29.2H375.956V15.8H371.956ZM373.956 31.2H375.156V27.2H373.956V31.2ZM373.156 29.2V59H377.156V29.2H373.156ZM375.156 57H365.436V61H375.156V57ZM393.476 59V32.88H389.476V59H393.476ZM393.476 32.88C393.476 29.5542 392.664 26.6801 390.782 24.5247L387.769 27.1553C388.821 28.3599 389.476 30.1791 389.476 32.88H393.476ZM390.782 24.5247C388.882 22.3479 386.299 21.32 383.276 21.32V25.32C385.319 25.32 386.736 25.9721 387.769 27.1553L390.782 24.5247ZM383.276 21.32C380.31 21.32 377.771 22.3623 375.861 24.5113L378.85 27.1687C379.927 25.9577 381.335 25.32 383.276 25.32V21.32ZM375.849 24.5247C374.001 26.6411 373.156 29.3282 373.156 32.4H377.156C377.156 30.0852 377.777 28.3988 378.862 27.1553L375.849 24.5247ZM376.265 30.7359L371.945 27.8559L369.726 31.1841L374.046 34.0641L376.265 30.7359ZM372.836 29.52C372.836 27.0675 373.438 24.9164 374.616 23.0127L371.215 20.9073C369.62 23.4836 368.836 26.3725 368.836 29.52H372.836ZM374.616 23.0127C375.818 21.072 377.426 19.5523 379.473 18.4358L377.558 14.9242C374.912 16.3677 372.787 18.368 371.215 20.9073L374.616 23.0127ZM379.48 18.432C381.534 17.3013 383.851 16.72 386.476 16.72V12.72C383.234 12.72 380.244 13.4454 377.551 14.928L379.48 18.432ZM386.476 16.72C389.417 16.72 391.711 17.3506 393.475 18.483L395.636 15.117C393.08 13.4761 389.987 12.72 386.476 12.72V16.72ZM393.499 18.4983C395.345 19.646 396.706 21.2051 397.611 23.2199L401.26 21.5801C400.032 18.8482 398.14 16.674 395.612 15.1017L393.499 18.4983ZM397.623 23.2446C398.576 25.2913 399.076 27.65 399.076 30.36H403.076C403.076 27.15 402.482 24.202 401.249 21.5554L397.623 23.2446ZM399.076 30.36V59H403.076V30.36H399.076ZM401.076 57H391.476V61H401.076V57ZM449.629 1.4V-0.600002H448.092L447.696 0.884672L449.629 1.4ZM459.309 1.4L461.241 1.91532L461.912 -0.600002H459.309V1.4ZM443.949 59V61H445.485L445.881 59.5153L443.949 59ZM434.269 59L432.336 58.4847L431.666 61H434.269V59ZM449.629 3.4H459.309V-0.600002H449.629V3.4ZM457.376 0.884672L442.016 58.4847L445.881 59.5153L461.241 1.91532L457.376 0.884672ZM443.949 57H434.269V61H443.949V57ZM436.201 59.5153L451.561 1.91532L447.696 0.884672L432.336 58.4847L436.201 59.5153ZM482.238 53L480.824 54.4142L482.237 55.827L483.651 54.4157L482.238 53ZM476.278 47.04L474.885 45.6049L473.429 47.0188L474.864 48.4542L476.278 47.04ZM489.918 33.8L491.311 35.2351L492.79 33.8L491.311 32.3649L489.918 33.8ZM476.278 20.56L474.864 19.1458L473.429 20.5812L474.885 21.9951L476.278 20.56ZM482.238 14.6L483.651 13.1843L482.237 11.773L480.824 13.1858L482.238 14.6ZM501.478 33.8L502.891 35.2157L504.31 33.8L502.891 32.3843L501.478 33.8ZM483.652 51.5858L477.692 45.6258L474.864 48.4542L480.824 54.4142L483.652 51.5858ZM477.671 48.4751L491.311 35.2351L488.525 32.3649L474.885 45.6049L477.671 48.4751ZM491.311 32.3649L477.671 19.1249L474.885 21.9951L488.525 35.2351L491.311 32.3649ZM477.692 21.9742L483.652 16.0142L480.824 13.1858L474.864 19.1458L477.692 21.9742ZM480.825 16.0157L500.065 35.2157L502.891 32.3843L483.651 13.1843L480.825 16.0157ZM500.065 32.3843L480.825 51.5843L483.651 54.4157L502.891 35.2157L500.065 32.3843Z" fill="#8257E5"/>
</g>
<defs>
<filter id="filter0_d_326_87" x="0.199951" y="0.23999" width="505.278" height="67.96" filterUnits="userSpaceOnUse" color-interpolation-filters="sRGB">
<feFlood flood-opacity="0" result="BackgroundImageFix"/>
<feColorMatrix in="SourceAlpha" type="matrix" values="0 0 0 0 0 0 0 0 0 0 0 0 0 0 0 0 0 0 127 0" result="hardAlpha"/>
<feOffset dy="4"/>
<feGaussianBlur stdDeviation="2"/>
<feComposite in2="hardAlpha" operator="out"/>
<feColorMatrix type="matrix" values="0 0 0 0 0 0 0 0 0 0 0 0 0 0 0 0 0 0 0.25 0"/>
<feBlend mode="normal" in2="BackgroundImageFix" result="effect1_dropShadow_326_87"/>
<feBlend mode="normal" in="SourceGraphic" in2="effect1_dropShadow_326_87" result="shape"/>
</filter>
</defs>
</svg>
