<svg width="217" height="37" viewBox="0 0 217 37" fill="none" xmlns="http://www.w3.org/2000/svg">
<g clip-path="url(#clip0_4_23)">
<g filter="url(#filter0_d_4_23)">
<path d="M49.648 28.592C51.376 28.592 52.72 28.2827 53.68 27.664C54.64 27.024 55.12 26 55.12 24.592C55.12 23.7813 54.96 23.1093 54.64 22.576C54.3413 22.0213 53.936 21.5627 53.424 21.2C52.912 20.816 52.3253 20.496 51.664 20.24C51.0027 19.9627 50.3093 19.6747 49.584 19.376C48.6667 19.0133 47.8453 18.64 47.12 18.256C46.3947 17.872 45.776 17.4453 45.264 16.976C44.752 16.4853 44.3573 15.9307 44.08 15.312C43.824 14.6933 43.696 13.968 43.696 13.136C43.696 11.2373 44.3253 9.79732 45.584 8.81599C46.8427 7.83466 48.592 7.34399 50.832 7.34399C51.4293 7.34399 52.016 7.38666 52.592 7.47199C53.168 7.55732 53.7013 7.67466 54.192 7.82399C54.704 7.95199 55.1627 8.10132 55.568 8.27199C55.9947 8.44266 56.3467 8.62399 56.624 8.81599L55.856 10.64C55.2373 10.2133 54.48 9.87199 53.584 9.61599C52.7093 9.35999 51.76 9.23199 50.736 9.23199C50.032 9.23199 49.3813 9.30666 48.784 9.45599C48.208 9.58399 47.7067 9.80799 47.28 10.128C46.8533 10.4267 46.512 10.8107 46.256 11.28C46.0213 11.7493 45.904 12.3147 45.904 12.976C45.904 13.6587 46.032 14.2347 46.288 14.704C46.544 15.1733 46.896 15.5787 47.344 15.92C47.8133 16.2613 48.3573 16.5707 48.976 16.848C49.5947 17.1253 50.2667 17.4133 50.992 17.712C51.8667 18.0747 52.688 18.4373 53.456 18.8C54.2453 19.1627 54.928 19.5893 55.504 20.08C56.08 20.5707 56.5387 21.168 56.88 21.872C57.2213 22.576 57.392 23.44 57.392 24.464C57.392 26.4693 56.688 27.9733 55.28 28.976C53.8933 29.9787 52.0053 30.48 49.616 30.48C48.7627 30.48 47.984 30.4267 47.28 30.32C46.576 30.2133 45.9467 30.0853 45.392 29.936C44.8373 29.7653 44.368 29.5947 43.984 29.424C43.6 29.2533 43.3013 29.104 43.088 28.976L43.792 27.088C44.0053 27.216 44.2933 27.3653 44.656 27.536C45.0187 27.7067 45.4453 27.8773 45.936 28.048C46.4267 28.1973 46.9813 28.3253 47.6 28.432C48.2187 28.5387 48.9013 28.592 49.648 28.592ZM81.3153 18.896C81.3153 20.7947 81.0379 22.4693 80.4833 23.92C79.9286 25.3707 79.1713 26.5867 78.2113 27.568C77.2726 28.528 76.1739 29.2533 74.9153 29.744C73.6566 30.2347 72.3233 30.48 70.9153 30.48C69.5073 30.48 68.1739 30.2347 66.9153 29.744C65.6566 29.2533 64.5473 28.528 63.5873 27.568C62.6486 26.5867 61.9019 25.3707 61.3473 23.92C60.7926 22.4693 60.5153 20.7947 60.5153 18.896C60.5153 16.9973 60.7926 15.3333 61.3473 13.904C61.9019 12.4533 62.6486 11.248 63.5873 10.288C64.5473 9.30665 65.6566 8.57065 66.9153 8.07999C68.1739 7.58932 69.5073 7.34399 70.9153 7.34399C72.3233 7.34399 73.6566 7.58932 74.9153 8.07999C76.1739 8.57065 77.2726 9.30665 78.2113 10.288C79.1713 11.248 79.9286 12.4533 80.4833 13.904C81.0379 15.3333 81.3153 16.9973 81.3153 18.896ZM79.0113 18.896C79.0113 17.4027 78.8193 16.0693 78.4353 14.896C78.0513 13.7013 77.5073 12.688 76.8033 11.856C76.0993 11.024 75.2459 10.3947 74.2433 9.96799C73.2619 9.51999 72.1526 9.29599 70.9153 9.29599C69.6779 9.29599 68.5579 9.51999 67.5553 9.96799C66.5739 10.3947 65.7313 11.024 65.0273 11.856C64.3233 12.688 63.7793 13.7013 63.3953 14.896C63.0113 16.0693 62.8193 17.4027 62.8193 18.896C62.8193 20.3893 63.0113 21.7333 63.3953 22.928C63.7793 24.1013 64.3233 25.104 65.0273 25.936C65.7313 26.768 66.5739 27.408 67.5553 27.856C68.5579 28.304 69.6779 28.528 70.9153 28.528C72.1526 28.528 73.2619 28.304 74.2433 27.856C75.2459 27.408 76.0993 26.768 76.8033 25.936C77.5073 25.104 78.0513 24.1013 78.4353 22.928C78.8193 21.7333 79.0113 20.3893 79.0113 18.896ZM91.5045 30.192C91.1418 30.192 90.7152 30.1707 90.2245 30.128C89.7552 30.1067 89.2645 30.064 88.7525 30C88.2618 29.9573 87.7925 29.904 87.3445 29.84C86.8965 29.7547 86.5125 29.6693 86.1925 29.584V8.23999C86.5765 8.13332 87.0032 8.04799 87.4725 7.98399C87.9418 7.89866 88.4218 7.83466 88.9125 7.79199C89.4245 7.72799 89.9152 7.68532 90.3845 7.66399C90.8752 7.64266 91.3232 7.63199 91.7285 7.63199C92.9232 7.63199 94.0538 7.72799 95.1205 7.91999C96.2085 8.11199 97.1578 8.43199 97.9685 8.87999C98.7792 9.32799 99.4192 9.92532 99.8885 10.672C100.379 11.3973 100.625 12.304 100.625 13.392C100.625 14.5867 100.315 15.6107 99.6965 16.464C99.0992 17.296 98.2885 17.872 97.2645 18.192C97.9045 18.3413 98.4912 18.5547 99.0245 18.832C99.5578 19.1093 100.027 19.472 100.433 19.92C100.838 20.3467 101.147 20.88 101.361 21.52C101.595 22.1387 101.713 22.8853 101.713 23.76C101.713 25.8507 100.881 27.4507 99.2165 28.56C97.5525 29.648 94.9818 30.192 91.5045 30.192ZM88.3685 19.376V28.112C88.6885 28.1547 89.1685 28.208 89.8085 28.272C90.4485 28.3147 91.0992 28.336 91.7605 28.336C92.7418 28.336 93.6912 28.272 94.6085 28.144C95.5472 28.016 96.3685 27.7813 97.0725 27.44C97.7765 27.0987 98.3418 26.6293 98.7685 26.032C99.1952 25.4347 99.4085 24.6667 99.4085 23.728C99.4085 22.8747 99.2592 22.1707 98.9605 21.616C98.6618 21.04 98.2352 20.592 97.6805 20.272C97.1258 19.9307 96.4432 19.696 95.6325 19.568C94.8432 19.44 93.9578 19.376 92.9765 19.376H88.3685ZM88.3685 17.52H92.5925C93.3818 17.52 94.1285 17.4667 94.8325 17.36C95.5365 17.232 96.1445 17.0187 96.6565 16.72C97.1898 16.4 97.6058 15.984 97.9045 15.472C98.2032 14.9387 98.3525 14.2667 98.3525 13.456C98.3525 12.7307 98.1925 12.1227 97.8725 11.632C97.5525 11.12 97.0938 10.704 96.4965 10.384C95.9205 10.064 95.2272 9.83999 94.4165 9.71199C93.6058 9.56266 92.7098 9.48799 91.7285 9.48799C90.9392 9.48799 90.2672 9.50932 89.7125 9.55199C89.1792 9.59466 88.7312 9.64799 88.3685 9.71199V17.52ZM121.133 14.48C121.133 16.144 120.695 17.456 119.821 18.416C118.946 19.376 117.794 20.0693 116.365 20.496C116.706 20.9227 117.143 21.4987 117.677 22.224C118.231 22.9493 118.797 23.7493 119.373 24.624C119.949 25.4773 120.514 26.3733 121.069 27.312C121.623 28.2507 122.093 29.1467 122.477 30H120.141C119.693 29.1467 119.202 28.2933 118.669 27.44C118.157 26.5867 117.623 25.7653 117.069 24.976C116.535 24.1653 116.013 23.4187 115.501 22.736C114.989 22.0533 114.541 21.456 114.157 20.944C113.474 21.008 112.791 21.04 112.109 21.04H108.525V30H106.349V8.23999C107.117 8.02666 108.013 7.87732 109.037 7.79199C110.082 7.68532 111.042 7.63199 111.917 7.63199C114.967 7.63199 117.261 8.20799 118.797 9.35999C120.354 10.512 121.133 12.2187 121.133 14.48ZM112.173 9.51999C111.362 9.51999 110.647 9.55199 110.029 9.61599C109.431 9.65866 108.93 9.70132 108.525 9.74399V19.184H111.533C112.535 19.184 113.485 19.1413 114.381 19.056C115.277 18.9493 116.055 18.736 116.717 18.416C117.378 18.0747 117.901 17.5947 118.285 16.976C118.669 16.3573 118.861 15.5147 118.861 14.448C118.861 13.4667 118.669 12.656 118.285 12.016C117.901 11.376 117.399 10.8747 116.781 10.512C116.162 10.128 115.447 9.87199 114.637 9.74399C113.847 9.59466 113.026 9.51999 112.173 9.51999ZM126.13 30V7.82399H138.93V9.71199H128.306V17.424H137.778V19.28H128.306V28.112H139.762V30H126.13ZM157.135 7.82399C157.52 8.52799 157.957 9.40266 158.448 10.448C158.96 11.472 159.482 12.592 160.016 13.808C160.57 15.0027 161.114 16.2293 161.648 17.488C162.181 18.7467 162.682 19.9307 163.152 21.04C163.621 19.9307 164.122 18.7467 164.656 17.488C165.189 16.2293 165.722 15.0027 166.256 13.808C166.81 12.592 167.333 11.472 167.824 10.448C168.336 9.40266 168.784 8.52799 169.168 7.82399H173.712C173.925 9.29599 174.117 10.9493 174.288 12.784C174.48 14.5973 174.64 16.496 174.768 18.48C174.917 20.4427 175.045 22.416 175.152 24.4C175.28 26.384 175.386 28.2507 175.472 30H170.608C170.544 27.8453 170.458 25.4987 170.352 22.96C170.245 20.4213 170.085 17.8613 169.872 15.28C169.488 16.176 169.061 17.168 168.592 18.256C168.122 19.344 167.653 20.432 167.184 21.52C166.736 22.608 166.298 23.6533 165.872 24.656C165.445 25.6373 165.082 26.48 164.784 27.184H161.296C160.997 26.48 160.634 25.6373 160.208 24.656C159.781 23.6533 159.333 22.608 158.864 21.52C158.416 20.432 157.957 19.344 157.488 18.256C157.018 17.168 156.592 16.176 156.208 15.28C155.994 17.8613 155.834 20.4213 155.728 22.96C155.621 25.4987 155.536 27.8453 155.472 30H150.608C150.693 28.2507 150.789 26.384 150.896 24.4C151.024 22.416 151.152 20.4427 151.28 18.48C151.429 16.496 151.589 14.5973 151.76 12.784C151.952 10.9493 152.154 9.29599 152.368 7.82399H157.135ZM179.966 7.82399H184.958V30H179.966V7.82399ZM195.979 7.82399C196.363 8.52799 196.801 9.40266 197.291 10.448C197.803 11.472 198.326 12.592 198.859 13.808C199.414 15.0027 199.958 16.2293 200.491 17.488C201.025 18.7467 201.526 19.9307 201.995 21.04C202.465 19.9307 202.966 18.7467 203.499 17.488C204.033 16.2293 204.566 15.0027 205.099 13.808C205.654 12.592 206.177 11.472 206.667 10.448C207.179 9.40266 207.627 8.52799 208.011 7.82399H212.555C212.769 9.29599 212.961 10.9493 213.131 12.784C213.323 14.5973 213.483 16.496 213.611 18.48C213.761 20.4427 213.889 22.416 213.995 24.4C214.123 26.384 214.23 28.2507 214.315 30H209.451C209.387 27.8453 209.302 25.4987 209.195 22.96C209.089 20.4213 208.929 17.8613 208.715 15.28C208.331 16.176 207.905 17.168 207.435 18.256C206.966 19.344 206.497 20.432 206.027 21.52C205.579 22.608 205.142 23.6533 204.715 24.656C204.289 25.6373 203.926 26.48 203.627 27.184H200.139C199.841 26.48 199.478 25.6373 199.051 24.656C198.625 23.6533 198.177 22.608 197.707 21.52C197.259 20.432 196.801 19.344 196.331 18.256C195.862 17.168 195.435 16.176 195.051 15.28C194.838 17.8613 194.678 20.4213 194.571 22.96C194.465 25.4987 194.379 27.8453 194.315 30H189.451C189.537 28.2507 189.633 26.384 189.739 24.4C189.867 22.416 189.995 20.4427 190.123 18.48C190.273 16.496 190.433 14.5973 190.603 12.784C190.795 10.9493 190.998 9.29599 191.211 7.82399H195.979Z" fill="url(#paint0_linear_4_23)"/>
</g>
<path d="M21.25 32.2277H12.75C10.88 32.2277 9.32166 32.0436 8.00416 31.6469C7.77118 31.5752 7.56907 31.4273 7.43033 31.2269C7.29158 31.0265 7.22425 30.7852 7.23916 30.5419C7.59332 26.3061 11.8858 22.9769 17 22.9769C22.1142 22.9769 26.3925 26.2919 26.7608 30.5419C26.8033 31.0519 26.4917 31.5052 25.9958 31.6469C24.6783 32.0436 23.12 32.2277 21.25 32.2277ZM9.51999 29.8336C10.455 30.0177 11.5175 30.1027 12.75 30.1027H21.25C22.4825 30.1027 23.545 30.0177 24.48 29.8336C23.7292 27.1136 20.6267 25.1019 17 25.1019C13.3733 25.1019 10.2708 27.1136 9.51999 29.8336Z" fill="url(#paint1_linear_4_23)"/>
<g filter="url(#filter1_d_4_23)">
<path d="M21.25 3.83333H12.75C5.66668 3.83333 2.83334 6.66666 2.83334 13.75V22.25C2.83334 27.605 4.44834 30.5375 8.30168 31.6283C8.61334 27.945 12.3958 25.0408 17 25.0408C21.6042 25.0408 25.3867 27.945 25.6983 31.6283C29.5517 30.5375 31.1667 27.605 31.1667 22.25V13.75C31.1667 6.66666 28.3333 3.83333 21.25 3.83333ZM17 21.0742C14.195 21.0742 11.9283 18.7933 11.9283 15.9883C11.9283 13.1833 14.195 10.9167 17 10.9167C19.805 10.9167 22.0717 13.1833 22.0717 15.9883C22.0717 18.7933 19.805 21.0742 17 21.0742Z" fill="url(#paint2_linear_4_23)"/>
</g>
<path d="M17.0028 22.1367C15.3746 22.1329 13.8144 21.4835 12.6644 20.3309C11.5145 19.1782 10.8686 17.6165 10.8687 15.9883C10.8687 12.6025 13.617 9.85417 17.0028 9.85417C20.3887 9.85417 23.137 12.6025 23.137 15.9883C23.137 17.6165 22.4912 19.1782 21.3412 20.3309C20.1912 21.4835 18.631 22.1329 17.0028 22.1367ZM17.0028 11.9792C15.9561 12.007 14.9616 12.4423 14.2311 13.1925C13.5006 13.9426 13.0918 14.9483 13.0918 15.9954C13.0918 17.0425 13.5006 18.0482 14.2311 18.7984C14.9616 19.5485 15.9561 19.9839 17.0028 20.0117C18.0495 19.9839 19.044 19.5485 19.7745 18.7984C20.505 18.0482 20.9138 17.0425 20.9138 15.9954C20.9138 14.9483 20.505 13.9426 19.7745 13.1925C19.044 12.4423 18.0495 12.007 17.0028 11.9792Z" fill="url(#paint3_linear_4_23)"/>
</g>
<defs>
<filter id="filter0_d_4_23" x="39.088" y="7.34399" width="179.227" height="31.136" filterUnits="userSpaceOnUse" color-interpolation-filters="sRGB">
<feFlood flood-opacity="0" result="BackgroundImageFix"/>
<feColorMatrix in="SourceAlpha" type="matrix" values="0 0 0 0 0 0 0 0 0 0 0 0 0 0 0 0 0 0 127 0" result="hardAlpha"/>
<feOffset dy="4"/>
<feGaussianBlur stdDeviation="2"/>
<feComposite in2="hardAlpha" operator="out"/>
<feColorMatrix type="matrix" values="0 0 0 0 0 0 0 0 0 0 0 0 0 0 0 0 0 0 0.25 0"/>
<feBlend mode="normal" in2="BackgroundImageFix" result="effect1_dropShadow_4_23"/>
<feBlend mode="normal" in="SourceGraphic" in2="effect1_dropShadow_4_23" result="shape"/>
</filter>
<filter id="filter1_d_4_23" x="-1.16666" y="3.83333" width="36.3334" height="35.795" filterUnits="userSpaceOnUse" color-interpolation-filters="sRGB">
<feFlood flood-opacity="0" result="BackgroundImageFix"/>
<feColorMatrix in="SourceAlpha" type="matrix" values="0 0 0 0 0 0 0 0 0 0 0 0 0 0 0 0 0 0 127 0" result="hardAlpha"/>
<feOffset dy="4"/>
<feGaussianBlur stdDeviation="2"/>
<feComposite in2="hardAlpha" operator="out"/>
<feColorMatrix type="matrix" values="0 0 0 0 0 0 0 0 0 0 0 0 0 0 0 0 0 0 0.25 0"/>
<feBlend mode="normal" in2="BackgroundImageFix" result="effect1_dropShadow_4_23"/>
<feBlend mode="normal" in="SourceGraphic" in2="effect1_dropShadow_4_23" result="shape"/>
</filter>
<linearGradient id="paint0_linear_4_23" x1="123" y1="37" x2="123" y2="-8.5" gradientUnits="userSpaceOnUse">
<stop stop-color="#0D1953"/>
<stop offset="1" stop-color="#8020FA"/>
</linearGradient>
<linearGradient id="paint1_linear_4_23" x1="24.5" y1="24.5" x2="16" y2="31.5" gradientUnits="userSpaceOnUse">
<stop stop-color="#101942"/>
<stop offset="1" stop-color="#412A9C"/>
</linearGradient>
<linearGradient id="paint2_linear_4_23" x1="17" y1="35" x2="17" y2="-0.499999" gradientUnits="userSpaceOnUse">
<stop stop-color="#101942"/>
<stop offset="1" stop-color="#8020FA"/>
</linearGradient>
<linearGradient id="paint3_linear_4_23" x1="17" y1="7.5" x2="17.0029" y2="22.1367" gradientUnits="userSpaceOnUse">
<stop stop-color="#101942"/>
<stop offset="1" stop-color="#412A9C"/>
</linearGradient>
<clipPath id="clip0_4_23">
<rect width="217" height="37" fill="white"/>
</clipPath>
</defs>
</svg>
