<svg width="498" height="109" viewBox="0 0 498 109" fill="none" xmlns="http://www.w3.org/2000/svg">
<g filter="url(#filter0_d_326_85)">
<path d="M30.4 79L11.2 59.8L30.4 40.6L36.4 46.56L22.72 59.8L36.4 73.04L30.4 79ZM75.5356 86.2C71.3223 86.2 67.5223 85.4667 64.1356 84C60.7756 82.5333 58.0023 80.44 55.8156 77.72C53.6556 74.9733 52.2823 71.72 51.6956 67.96L61.6956 66.44C62.549 69.8533 64.2956 72.4933 66.9356 74.36C69.6023 76.2267 72.669 77.16 76.1356 77.16C78.189 77.16 80.1223 76.84 81.9356 76.2C83.749 75.56 85.2156 74.6267 86.3356 73.4C87.4823 72.1733 88.0556 70.6667 88.0556 68.88C88.0556 68.08 87.9223 67.3467 87.6556 66.68C87.389 65.9867 86.989 65.3733 86.4556 64.84C85.949 64.3067 85.2823 63.8267 84.4556 63.4C83.6556 62.9467 82.7223 62.56 81.6556 62.24L66.7756 57.84C65.4956 57.4667 64.109 56.9733 62.6156 56.36C61.149 55.72 59.749 54.8533 58.4156 53.76C57.109 52.64 56.029 51.2267 55.1756 49.52C54.349 47.7867 53.9356 45.6533 53.9356 43.12C53.9356 39.4133 54.869 36.3067 56.7356 33.8C58.629 31.2667 61.1623 29.3733 64.3356 28.12C67.5356 26.8667 71.0823 26.2533 74.9756 26.28C78.9223 26.3067 82.4423 26.9867 85.5356 28.32C88.629 29.6267 91.2156 31.5333 93.2956 34.04C95.3756 36.5467 96.8423 39.5733 97.6956 43.12L87.3356 44.92C86.909 42.8933 86.0823 41.1733 84.8556 39.76C83.6556 38.32 82.1756 37.2267 80.4156 36.48C78.6823 35.7333 76.829 35.3333 74.8556 35.28C72.9356 35.2533 71.149 35.5467 69.4956 36.16C67.869 36.7467 66.549 37.6 65.5356 38.72C64.549 39.84 64.0556 41.1467 64.0556 42.64C64.0556 44.0533 64.4823 45.2133 65.3356 46.12C66.189 47 67.2423 47.7067 68.4956 48.24C69.7756 48.7467 71.069 49.1733 72.3756 49.52L82.6956 52.4C84.109 52.7733 85.6956 53.28 87.4556 53.92C89.2156 54.56 90.909 55.4533 92.5356 56.6C94.1623 57.7467 95.4956 59.2533 96.5356 61.12C97.6023 62.9867 98.1356 65.36 98.1356 68.24C98.1356 71.2267 97.509 73.8533 96.2556 76.12C95.029 78.36 93.3623 80.2267 91.2556 81.72C89.149 83.2133 86.7356 84.3333 84.0156 85.08C81.3223 85.8267 78.4956 86.2 75.5356 86.2ZM123.474 86.2C119.154 86.2 115.38 85.2267 112.154 83.28C108.927 81.3333 106.42 78.6533 104.634 75.24C102.874 71.8 101.994 67.8533 101.994 63.4C101.994 58.8667 102.9 54.8933 104.714 51.48C106.527 48.0667 109.047 45.4 112.274 43.48C115.5 41.56 119.234 40.6 123.474 40.6C127.82 40.6 131.607 41.5733 134.834 43.52C138.06 45.4667 140.567 48.16 142.354 51.6C144.14 55.0133 145.034 58.9467 145.034 63.4C145.034 67.88 144.127 71.84 142.314 75.28C140.527 78.6933 138.02 81.3733 134.794 83.32C131.567 85.24 127.794 86.2 123.474 86.2ZM123.474 77.16C127.314 77.16 130.167 75.88 132.034 73.32C133.9 70.76 134.834 67.4533 134.834 63.4C134.834 59.2133 133.887 55.88 131.994 53.4C130.1 50.8933 127.26 49.64 123.474 49.64C120.887 49.64 118.754 50.2267 117.074 51.4C115.42 52.5467 114.194 54.16 113.394 56.24C112.594 58.2933 112.194 60.68 112.194 63.4C112.194 67.5867 113.14 70.9333 115.034 73.44C116.954 75.92 119.767 77.16 123.474 77.16ZM172.207 86.2C167.994 86.2 164.46 85.2 161.607 83.2C158.754 81.2 156.607 78.48 155.167 75.04C153.727 71.5733 153.007 67.6933 153.007 63.4C153.007 59.0533 153.727 55.16 155.167 51.72C156.607 48.28 158.714 45.5733 161.487 43.6C164.287 41.6 167.74 40.6 171.847 40.6C175.927 40.6 179.46 41.6 182.447 43.6C185.46 45.5733 187.794 48.28 189.447 51.72C191.1 55.1333 191.927 59.0267 191.927 63.4C191.927 67.72 191.114 71.6 189.487 75.04C187.86 78.48 185.567 81.2 182.607 83.2C179.647 85.2 176.18 86.2 172.207 86.2ZM151.367 85V27.4H161.087V54.68H159.887V85H151.367ZM170.727 77.56C173.234 77.56 175.3 76.9333 176.927 75.68C178.554 74.4267 179.754 72.7333 180.527 70.6C181.327 68.44 181.727 66.04 181.727 63.4C181.727 60.7867 181.327 58.4133 180.527 56.28C179.727 54.12 178.487 52.4133 176.807 51.16C175.127 49.88 172.994 49.24 170.407 49.24C167.954 49.24 165.954 49.84 164.407 51.04C162.86 52.2133 161.714 53.8667 160.967 56C160.247 58.1067 159.887 60.5733 159.887 63.4C159.887 66.2 160.247 68.6667 160.967 70.8C161.714 72.9333 162.874 74.6 164.447 75.8C166.047 76.9733 168.14 77.56 170.727 77.56ZM198.344 85V41.8H206.864V52.32L205.824 50.96C206.357 49.52 207.064 48.2133 207.944 47.04C208.85 45.84 209.93 44.8533 211.184 44.08C212.25 43.36 213.424 42.8 214.704 42.4C216.01 41.9733 217.344 41.72 218.704 41.64C220.064 41.5333 221.384 41.5867 222.664 41.8V50.8C221.384 50.4267 219.904 50.3067 218.224 50.44C216.57 50.5733 215.077 51.04 213.744 51.84C212.41 52.56 211.317 53.48 210.464 54.6C209.637 55.72 209.024 57 208.624 58.44C208.224 59.8533 208.024 61.3867 208.024 63.04V85H198.344ZM246.756 86.2C242.382 86.2 238.542 85.2533 235.236 83.36C231.929 81.4667 229.342 78.84 227.476 75.48C225.636 72.12 224.716 68.2533 224.716 63.88C224.716 59.16 225.622 55.0667 227.436 51.6C229.249 48.1067 231.769 45.4 234.996 43.48C238.222 41.56 241.956 40.6 246.196 40.6C250.676 40.6 254.476 41.6533 257.596 43.76C260.742 45.84 263.076 48.7867 264.596 52.6C266.116 56.4133 266.689 60.9067 266.316 66.08H256.756V62.56C256.729 57.8667 255.902 54.44 254.276 52.28C252.649 50.12 250.089 49.04 246.596 49.04C242.649 49.04 239.716 50.2667 237.796 52.72C235.876 55.1467 234.916 58.7067 234.916 63.4C234.916 67.7733 235.876 71.16 237.796 73.56C239.716 75.96 242.516 77.16 246.196 77.16C248.569 77.16 250.609 76.64 252.316 75.6C254.049 74.5333 255.382 73 256.316 71L265.836 73.88C264.182 77.7733 261.622 80.8 258.156 82.96C254.716 85.12 250.916 86.2 246.756 86.2ZM231.876 66.08V58.8H261.596V66.08H231.876ZM286.456 85V27.4H295.136L315.056 68.2L334.976 27.4H343.656V85H334.656V48.08L316.976 85H313.136L295.496 48.08V85H286.456ZM353.294 35.24V26.4H362.934V35.24H353.294ZM353.294 85V41.8H362.934V85H353.294ZM402.396 85V64.2C402.396 62.84 402.302 61.3333 402.116 59.68C401.929 58.0267 401.489 56.44 400.796 54.92C400.129 53.3733 399.116 52.1067 397.756 51.12C396.422 50.1333 394.609 49.64 392.316 49.64C391.089 49.64 389.876 49.84 388.676 50.24C387.476 50.64 386.382 51.3333 385.396 52.32C384.436 53.28 383.662 54.6133 383.076 56.32C382.489 58 382.196 60.16 382.196 62.8L376.476 60.36C376.476 56.68 377.182 53.3467 378.596 50.36C380.036 47.3733 382.142 45 384.916 43.24C387.689 41.4533 391.102 40.56 395.156 40.56C398.356 40.56 400.996 41.0933 403.076 42.16C405.156 43.2267 406.809 44.5867 408.036 46.24C409.262 47.8933 410.169 49.6533 410.756 51.52C411.342 53.3867 411.716 55.16 411.876 56.84C412.062 58.4933 412.156 59.84 412.156 60.88V85H402.396ZM372.436 85V41.8H381.036V55.2H382.196V85H372.436ZM434.754 27.4H444.434L429.074 85H419.394L434.754 27.4ZM467.363 79L461.403 73.04L475.043 59.8L461.403 46.56L467.363 40.6L486.603 59.8L467.363 79Z" fill="#8257E5"/>
</g>
<defs>
<filter id="filter0_d_326_85" x="7.19995" y="26.24" width="483.403" height="67.96" filterUnits="userSpaceOnUse" color-interpolation-filters="sRGB">
<feFlood flood-opacity="0" result="BackgroundImageFix"/>
<feColorMatrix in="SourceAlpha" type="matrix" values="0 0 0 0 0 0 0 0 0 0 0 0 0 0 0 0 0 0 127 0" result="hardAlpha"/>
<feOffset dy="4"/>
<feGaussianBlur stdDeviation="2"/>
<feComposite in2="hardAlpha" operator="out"/>
<feColorMatrix type="matrix" values="0 0 0 0 0 0 0 0 0 0 0 0 0 0 0 0 0 0 0.25 0"/>
<feBlend mode="normal" in2="BackgroundImageFix" result="effect1_dropShadow_326_85"/>
<feBlend mode="normal" in="SourceGraphic" in2="effect1_dropShadow_326_85" result="shape"/>
</filter>
</defs>
</svg>
